<svg xmlns="http://www.w3.org/2000/svg" xmlns:xlink="http://www.w3.org/1999/xlink" width="209.02" height="200.88" viewBox="0 0 209.02 200.88"><defs><style>.a,.h{fill:none;}.b,.c,.d{fill:#9dc3c2;}.b{opacity:0.6;}.c{opacity:0.3;}.e{clip-path:url(#a);}.f{fill:#d0efb1;}.g{fill:#fff;}.h{stroke:#4d7298;stroke-linecap:round;stroke-linejoin:round;stroke-width:4.728px;}</style><clipPath id="a"><circle class="a" cx="85.104" cy="85.104" r="85.104" transform="translate(1945.839 1285.033)"/></clipPath></defs><g transform="translate(-1925.293 -1271.923)"><path class="b" d="M1989.151,1284.279c-.084.053-.163.11-.239.169-1.328-1.271-3.632-1.548-6.008-.8a7.452,7.452,0,0,0-12.545,7.574c-.127.066-.253.137-.376.215-2.378,1.511-2.8,4.985-1.726,7.588,1.324,3.2,5.114,2.907,6.755,1.275,2.636-2.62,12.935-9.364,17.336-10.982,1.9-.7,2.976-2.626,1.639-4.222A4.1,4.1,0,0,0,1989.151,1284.279Z"/><path class="c" d="M1947.99,1325.479c-.028.062-.052.125-.074.187a4.182,4.182,0,0,0-3.751,1.806,5.117,5.117,0,0,0-4.341,9.079c-.048.086-.093.174-.135.265-.794,1.764.272,3.919,1.873,5.006a2.866,2.866,0,0,0,4.359-1.817,53.911,53.911,0,0,1,5.8-12.842c.825-1.115.716-2.629-.653-3.04A2.815,2.815,0,0,0,1947.99,1325.479Z"/><path class="c" d="M2128.8,1366.609c-.02-.065-.043-.128-.068-.189a4.179,4.179,0,0,0,1.63-3.831,5.116,5.116,0,0,0-2.719-9.688c-.021-.1-.045-.193-.074-.289-.566-1.85-2.788-2.767-4.708-2.529a2.865,2.865,0,0,0-2.08,4.239,53.986,53.986,0,0,1,4.1,13.483c.115,1.383,1.2,2.45,2.5,1.857A2.817,2.817,0,0,0,2128.8,1366.609Z"/><path class="c" d="M2061.121,1281.058c-.066-.018-.131-.032-.2-.044a4.178,4.178,0,0,0-2.365-3.425,5.117,5.117,0,0,0-9.642-2.883c-.092-.034-.186-.065-.283-.091-1.866-.512-3.829.875-4.655,2.626a2.865,2.865,0,0,0,2.47,4.024,53.962,53.962,0,0,1,13.587,3.745c1.229.642,2.708.3,2.9-1.116A2.815,2.815,0,0,0,2061.121,1281.058Z"/><path class="b" d="M2095.218,1295.054c-.068-.041-.138-.078-.208-.112.4-1.346-.263-3.049-1.668-4.465a6.054,6.054,0,0,0-9.959-6.279c-.094-.067-.19-.132-.29-.192-1.941-1.166-4.532-.321-5.955,1.289-1.749,1.979-.137,4.532,1.615,5.143,2.813.981,11.357,5.963,14.124,8.509,1.192,1.1,2.943,1.216,3.564-.244A3.234,3.234,0,0,0,2095.218,1295.054Z"/><circle class="d" cx="85.104" cy="85.104" r="85.104" transform="translate(1945.839 1285.033)"/><g class="e"><path class="f" d="M1947.161,1380.923a8.186,8.186,0,0,1-3.507-2.561c-1.017-1.5-1.021-3.453-.9-5.264.609-9.365,3.477-18.415,6.325-27.357,2-6.275,4.032-12.628,7.555-18.191,2.182-3.445,3.279-7.458,5.978-10.515,5-5.669,9.537-11.292,15.81-15.514,3.366-2.265,9.9-3.256,13.527-1.433,4.31,2.168,4.921,7.962,4.964,12.786.029,3.323-.36,7.36-3.359,8.794-2.3,1.1-5.036.035-7.22-1.283s-4.376-2.95-6.926-3.024c-3.328-.095-6.217,2.644-7.338,5.779s-.845,6.58-.44,9.885a3.69,3.69,0,0,0,.46,1.615c.934,1.415,3.259.876,4.372-.4s1.567-3.017,2.609-4.355c2.837-3.641,9.1-2.675,12.026.891s3.241,8.611,2.694,13.194a26.58,26.58,0,0,0-10.843-2.495,5.692,5.692,0,0,0,2.6,4.409c-1.788,2.892-5.257,4.153-8.333,5.6s-6.307,3.771-6.568,7.161a22.776,22.776,0,0,0,.532,4.347,10.531,10.531,0,0,1-.172,3.474c-.654,2.988-3.911,5.93-6.521,4.335-1.491-.911-1.988-2.884-3.343-3.987-2-1.629-5.248-.653-6.762,1.438s-1.673,4.866-1.427,7.436c.581,1.413,2.407,1.8,3.933,1.7s3.148-.442,4.516.239c2.39,1.189,2.417,4.483,3.071,7.071a2.556,2.556,0,0,0,.727,1.389,2.806,2.806,0,0,0,1.727.457c6.78.239,13.7-.8,20.272.893a6.946,6.946,0,0,1,3.934,2.175,26.1,26.1,0,0,1,1.567,3.2c2.089,3.709,7.268,3.98,10.865,6.256a10.788,10.788,0,0,1,3.377,14.095c-1.325,2.227-3.5,4.008-4.152,6.517a24.148,24.148,0,0,0-.309,4.295c-.314,4.229-2.892,7.994-3.5,12.192-.655,4.545,1.055,9.069,1.464,13.643a2.538,2.538,0,0,1-.292,1.754c-.968,1.31-2.981-.015-3.976-1.3-3.5-4.538-7.047-9.152-9.169-14.477-1.791-4.492-2.507-9.345-4.151-13.893s-4.516-9.017-9-10.824a7.18,7.18,0,0,1-2.978-1.6,5.473,5.473,0,0,1-.957-3.126l-.885-9.474a3.991,3.991,0,0,0-.712-2.3,4.482,4.482,0,0,0-2.094-1.08,18.968,18.968,0,0,1-9.536-7.36C1954.412,1382.9,1950.621,1382.53,1947.161,1380.923Z"/><path class="f" d="M1970.935,1377.512a1.509,1.509,0,0,1-.428-.339,1.6,1.6,0,0,1-.162-1.2.487.487,0,0,1,.056-.2.4.4,0,0,1,.179-.141,2.024,2.024,0,0,1,1.884.3,9.4,9.4,0,0,0,1.692,1.04,5.628,5.628,0,0,0,1.389.227,3.463,3.463,0,0,1,1.36.335c1.729.949.228,2.162-1.139,1.887A15.351,15.351,0,0,1,1970.935,1377.512Z"/><path class="f" d="M1978.546,1380.387c.039.052.106-.062.05-.1s-.125.005-.178.043l2.619-.714a1.117,1.117,0,0,1,.529-.055c.481.106.594.731.6,1.223a.369.369,0,0,1-.056.252.352.352,0,0,1-.207.1,4.983,4.983,0,0,1-3.028-.32"/><path class="f" d="M2011.029,1336.673c-.334.946-1.778,1.005-2.522.332a4.646,4.646,0,0,1-1.143-2.722,16.277,16.277,0,0,1-.367-3.251c.058-2.633,1.37-5.046,2.347-7.491a17.428,17.428,0,0,0,1.427-6.6,9.343,9.343,0,0,0-2.28-6.24,2.743,2.743,0,0,1-.735-1.035,2.059,2.059,0,0,1,.1-1.138,19.261,19.261,0,0,1,2.787-5.145l2.11-3.1a3.277,3.277,0,0,0-2.893.123c-.909.421-1.7,1.055-2.6,1.506a13.774,13.774,0,0,0-2.914,1.483,22.148,22.148,0,0,0-1.758,2.124,2.384,2.384,0,0,1-2.442.89,2.056,2.056,0,0,1-1.033-2.421,5.86,5.86,0,0,1,1.53-2.4,6.264,6.264,0,0,0,1.572-2.381,19.879,19.879,0,0,0,.214-2.715,6.427,6.427,0,0,1,3.645-4.506,40.227,40.227,0,0,1,5.672-2c1.607-.553,3.16-1.279,4.814-1.669a23.139,23.139,0,0,1,7.385-.177c3.727.337,7.518.812,10.9,2.4,1.008.473,2.082,1.208,2.186,2.316.149,1.584-1.794,2.982-1.246,4.476a6.337,6.337,0,0,0,.644,1.039c.919,1.506.25,3.486-.739,4.946s-2.305,2.764-2.789,4.46a23.519,23.519,0,0,0-.345,4.079c-.141,1.361-.743,2.841-2.021,3.331a6.162,6.162,0,0,0-1.165.42,2.084,2.084,0,0,0-.632,2.261c.2.813.628,1.558.783,2.379a5.124,5.124,0,0,1-2.266,4.771,21.714,21.714,0,0,1-5.012,2.383c-3.933,1.6-7.687,4.12-9.7,7.86-.658,1.224-1.465,2.783-2.853,2.7a2.372,2.372,0,0,1-1.147-.445,4.517,4.517,0,0,1-1.732-4.962"/><path class="f" d="M2031.085,1330.3a2.475,2.475,0,0,0,.786.253c.264.086.522.367.394.614a.775.775,0,0,1-.331.26c-.553.322-.834.976-1.353,1.351a3.382,3.382,0,0,1-2.231.367,3.338,3.338,0,0,1-.81-.121,2.408,2.408,0,0,1-1.062-.77,2.628,2.628,0,0,1-.581-1.061,3.644,3.644,0,0,1,.481-2.345.756.756,0,0,1,.2-.289.771.771,0,0,1,.459-.114q1.5-.045,3.007-.019C2030.9,1328.441,2031.111,1329.442,2031.085,1330.3Z"/><path class="f" d="M2053.535,1304.6a4.164,4.164,0,0,0-1.591,2.652,3.333,3.333,0,0,1-.248,1.1,1.385,1.385,0,0,1-1.119.679,1.966,1.966,0,0,1-1.274-.405,5.005,5.005,0,0,1-1.443-2.21,1.682,1.682,0,0,1-.12-1.518,1.32,1.32,0,0,1,.311-.318c1.364-1.055,3.446-.917,4.654-2.147a1.045,1.045,0,0,1,.351-.283.607.607,0,0,1,.694.312,1.789,1.789,0,0,1,.17.8"/><path class="f" d="M2113.911,1348.1q-.847-2.523-1.839-4.993-1.1-2.748-2.385-5.42c-.326-.679-.791-1.29-1.1-1.958-.383-.822-.554-1.805-.854-2.666a50.353,50.353,0,0,0-4.823-10.088c-1.363-2.185-2.892-4.263-4.461-6.306q-2.083-2.712-4.264-5.349a17.122,17.122,0,0,0-3.844-3.728,6.156,6.156,0,0,0-5.128-.876,6.661,6.661,0,0,0-2.878,2.137c-.824.981-1.783,2.488-1.416,3.83.327,1.193.829,2.715.18,3.9-1.1,2.022-4.368.748-5.541-1.234s-1.679-4.57-3.67-5.728a7.981,7.981,0,0,0,2.071,8.905c1.107.956,2.6,1.79,2.777,3.242a11.953,11.953,0,0,1-6.427,2.793q.405,1.25.811,2.5c-2.455-3.283-5.914-6.03-9.961-6.683s-8.636,1.241-10.266,5c-.8,1.839-.86,3.948-1.772,5.732a37.883,37.883,0,0,1-2.907,3.911c-.923,1.341-1.509,3.14-.75,4.579s3.3,1.7,3.864.174c-.178,1.726,2.309,2.737,3.768,1.8s1.881-2.909,1.727-4.637c-.131-1.479-.583-2.969-.282-4.423s1.794-2.824,3.173-2.275a5.958,5.958,0,0,0,4.835,7.478,25.856,25.856,0,0,1-5.191,6.176,8.753,8.753,0,0,1-7.572,1.892,2.97,2.97,0,0,0-1.8-2.218,26.238,26.238,0,0,1-8.558,12.873l1.725.992c-.829,2.247-4.047,2.056-6.155,3.194a4.854,4.854,0,0,0-2.415,4.934,3.143,3.143,0,0,0,.932,2.016,11.431,11.431,0,0,1,1.5,1.03c1.344,1.294.051,3.08-.813,4.341a45.309,45.309,0,0,0-5.591,11.24,12.231,12.231,0,0,0-.808,4.253,14.2,14.2,0,0,0,1.981,5.826c1.584,3.084,3.6,6.507,7,7.188,2.585.518,5.142-.747,7.663-1.517s5.747-.83,7.268,1.323a4.891,4.891,0,0,0-.89,2.96,5.527,5.527,0,0,0,.879,1.95,19.886,19.886,0,0,1,2.743,10.03,11.271,11.271,0,0,1-.741,4.752,3.979,3.979,0,0,0,.32,4.059,12.922,12.922,0,0,1,1.468,1.972,4.7,4.7,0,0,1,.315,1.474,25.9,25.9,0,0,1,.046,4.268,4.88,4.88,0,0,0,.03,1.473,4.488,4.488,0,0,0,1.719,2.207,11.308,11.308,0,0,0,2.558,1.763,3.809,3.809,0,0,0,3.023.153,5.654,5.654,0,0,0,1.864-1.58l4.546-5.16a16.063,16.063,0,0,0,1.316-1.631,14.051,14.051,0,0,0,1.694-4.016,6.6,6.6,0,0,1,.961-2.281c.84-1.08,1.731-2.05,2.557-3.159a14.113,14.113,0,0,0,1.891-3.043,4.765,4.765,0,0,0,.168-3.5c-.26-.659-.716-1.233-.926-1.909-.462-1.484.34-3.037,1.116-4.383a13.253,13.253,0,0,1,2.564-3.493c.583-.51,1.251-.914,1.838-1.419,1.668-1.431,2.838-3.515,4.077-5.3.246-.356,1.633-2.833,1.982-2.827a10.54,10.54,0,0,1-6.516-2.419l10.705-7.552a4.347,4.347,0,0,0,1.56-1.565c1.029-2.2-1.867-4.138-4.226-4.718s-5.407-1.812-5.089-4.22a119.26,119.26,0,0,1,13.851,4.13c2.911,1.063,5.876,2.3,8.008,4.554,4.18,4.41,4.092,11.428,7.458,16.486.609.915,1.552,1.847,2.633,1.648,1.341-.246,1.751-1.94,1.859-3.3C2120.4,1380.992,2119.238,1363.955,2113.911,1348.1Zm-47.534,10.5a2.946,2.946,0,0,1,1.545-.763,4.705,4.705,0,0,0,2.91-1.727,2.617,2.617,0,0,1,.283-.426,1.157,1.157,0,0,1,.9-.318c1.059.049,1.8,1.036,2.372,1.926q.821,1.265,1.64,2.53a7.929,7.929,0,0,1-.725.585,4.213,4.213,0,0,1-4.306.126c-1.456-.684-2.89-.114-4.457.028A1.447,1.447,0,0,1,2066.377,1358.607Zm2.971,12.384a20,20,0,0,1-7.241-.041,5.652,5.652,0,0,0-1.948-.173,1.627,1.627,0,0,0-1.4,1.2c-.083.5.111,1.142-.307,1.429a1.069,1.069,0,0,1-1.019-.091,13.8,13.8,0,0,0-2.838-1.125,3.187,3.187,0,0,1-1.139-.321,9.594,9.594,0,0,1-.838-.968,3.023,3.023,0,0,0-.165-.4,1.89,1.89,0,0,0-.3-.358,20.2,20.2,0,0,1-2.194-2.655q-4.4.234-8.8.124a8.15,8.15,0,0,1,1.248-3.231,3.831,3.831,0,0,1,1.3-1.3,9.339,9.339,0,0,0,1.065-.528c.514-.371.817-1.042,1.421-1.233.72-.228,1.435.349,1.9.939s.936,1.291,1.674,1.447a11.078,11.078,0,0,0,.14-2.059,1.9,1.9,0,0,1,2.113.807,13.137,13.137,0,0,1,1.065,2.187,2.611,2.611,0,0,0,1.738,1.575.718.718,0,0,0,.5-.067.913.913,0,0,0,.272-.33l.833-1.416c.2-.341.452-.717.843-.775a1.307,1.307,0,0,1,1.03.526,5.8,5.8,0,0,0,2.038,1.613,1.63,1.63,0,0,0,2.147-.891,3.465,3.465,0,0,1,.154-.794.959.959,0,0,1,1.116-.38,3.233,3.233,0,0,1,1.078.671,13.575,13.575,0,0,0,6.867,2.85c.389.044.857.127,1,.492a1.046,1.046,0,0,1-.079.713,4.61,4.61,0,0,1-.644,1.324A4.156,4.156,0,0,1,2069.348,1370.991Zm7.356,16.5a10.828,10.828,0,0,1-2.579-3.805,18.852,18.852,0,0,1-.676-2.02l-1.458-4.981a2.864,2.864,0,0,0,1.4-.094,1.238,1.238,0,0,1,1.285.356,2.315,2.315,0,0,1,.2.644,4.416,4.416,0,0,0,1.292,1.735,14.9,14.9,0,0,1,2.422,3.48,13.72,13.72,0,0,1,1.751,3.848C2080.6,1388.645,2077.694,1388.354,2076.7,1387.494Z"/><path class="f" d="M2038.609,1349.324a2.718,2.718,0,0,0,.142-2.175c-.254-.583-.784-1-1.082-1.564-.672-1.268-.009-2.8.65-4.077a.578.578,0,0,1,.241-.286c.217-.1.446.1.595.284a8.288,8.288,0,0,1,1.695,3.647,6.6,6.6,0,0,0,.255,1.125c.435,1.145,1.683,1.79,2.014,2.99.37,1.339-.839,2.048-1.75,2.777-.882.706-3.506,3.032-4.291,1.116C2036.5,1351.759,2038.079,1350.491,2038.609,1349.324Z"/><path class="f" d="M2033.879,1346.537a1.019,1.019,0,0,1,.519-.206,3.625,3.625,0,0,1,2.337.4.974.974,0,0,1,.334.268c.827,1.158-.7,3.075-1.941,3.013C2033.68,1349.945,2032.762,1347.531,2033.879,1346.537Z"/><path class="f" d="M2079.323,1425.368a2.194,2.194,0,0,1,.593-1.889,57.189,57.189,0,0,1,5.681-6.376c.228,2.142-1.158,4.077-1.851,6.116a19.556,19.556,0,0,0-.552,2.136c-.182.833-.252,3.635-1.549,3.3-.549-.143-1.015-1-1.3-1.435A6.324,6.324,0,0,1,2079.323,1425.368Z"/></g><path class="g" d="M2069.69,1341.1a11.906,11.906,0,0,0-5.283-3.54,12.073,12.073,0,0,0-10.586,1.4c-.158.105-.313.215-.466.327a12.157,12.157,0,0,0-1.449-2.992,12.11,12.11,0,0,0-16.8-3.358c-.123.081-.242.167-.362.253a12.7,12.7,0,0,0-9.7-8.914l-.072-.015a12.707,12.707,0,0,0-13.495,6.141,12.11,12.11,0,0,0-21.527,4.941l-4.179,20.9a12.077,12.077,0,0,0-.151,3.782,59.574,59.574,0,0,0-6.5,5.333c-2.845,2.683-12.125,12.051-12.117,19.951.005,4.408,4.147,10.9,12.665,19.835,4.71,4.943,9.357,9.152,11.269,10.846l-4.119,54.265a2.381,2.381,0,0,0,1.67,2.448,2.216,2.216,0,0,0,.688.095h.029l60.341-.751a2.364,2.364,0,0,0,2.335-2.363v-45.273c2.237-2.767,10.5-13.316,12.875-21.112,2.486-8.152,2.818-18.6.921-24.158a12.033,12.033,0,0,0,2.168-4.863l4.572-22.865A12.079,12.079,0,0,0,2069.69,1341.1Z"/><path class="h" d="M2031.5,1413.973c2.536-4.475,7.011-18.348,2.237-27.3"/><path class="h" d="M1997.851,1350.679a9.7,9.7,0,0,1-.131-4.4l4.178-20.9a9.748,9.748,0,0,1,11.471-7.648h0a9.748,9.748,0,0,1,7.647,11.47l-4.178,20.9a9.875,9.875,0,0,1-.42,1.483"/><rect class="h" width="19.496" height="46.106" rx="9.748" transform="matrix(0.981, 0.196, -0.196, 0.981, 2043.807, 1321.12)"/><rect class="h" width="19.496" height="42.814" rx="9.748" transform="translate(2062.519 1327.143) rotate(11.307)"/><path class="h" d="M2016.515,1351.657l5.479-27.4a10.321,10.321,0,0,1,12.145-8.1l.07.014a10.32,10.32,0,0,1,8.1,12.144l-6.507,32.544a10.273,10.273,0,0,1-3.475,5.873"/><path class="h" d="M2059.312,1459.294v-46.152s10.387-12.459,12.978-20.958c2.6-8.519,2.651-19.674.446-23.9"/><path class="h" d="M1998.8,1460.009l4.208-55.442s-24.007-20.715-24.017-29.686c-.01-9.995,19.794-28.151,27.755-27.676,11.329.676,31.682,26.316,33.109,29.168,1.79,3.58-2.835,12.083-10.89,10.293s-21.183-12.531-21.183-12.531"/><path class="d" d="M1968.746,1290.816c-.818-.63-2.474-.246-3.866.945a5.85,5.85,0,0,0-1.083,1.217,5.766,5.766,0,0,0-7.579,8.546c.038.044.079.082.118.124a5.873,5.873,0,0,0-2.206,1.141l-.1.081c-2.149,1.839-2.648,4.784-1.113,6.579a4.417,4.417,0,0,0,6.7-.108c3.872-4.74,12.151-11.434,17.555-15.055,6.683-4.478,4.869-6.8,2.173-7.179S1972.826,1287.5,1968.746,1290.816Z"/><path class="d" d="M2104.184,1302.443c.561-.867.043-2.486-1.258-3.776a5.9,5.9,0,0,0-1.3-.98,5.766,5.766,0,0,0-9.139-6.852c-.041.041-.075.085-.114.127a5.882,5.882,0,0,0-1.317-2.1c-.03-.03-.059-.06-.09-.09-2.008-1.992-4.984-2.247-6.647-.57a4.418,4.418,0,0,0,.657,6.672c5.042,3.469,12.392,11.172,16.444,16.261,5.01,6.294,7.176,4.3,7.333,1.577S2107.826,1306.237,2104.184,1302.443Z"/><path class="d" d="M2128.162,1363.144c1.017.14,1.854,1.4,1.919,2.965a4.322,4.322,0,0,1-.164,1.39,5.122,5.122,0,0,1,4.392,4.571c.112,2.725-2.377,5.041-5.56,5.172-.057,0-.113,0-.17,0a4.457,4.457,0,0,1,.652,2.045c0,.036,0,.072.006.108a4.332,4.332,0,0,1-4.092,4.558c-2.36.1-4.879-1.707-4.453-4.242.872-5.2.2-14.289-.786-19.784-1.223-6.8,1.715-7.029,3.817-5.571S2127.846,1358.652,2128.162,1363.144Z"/><path class="d" d="M1935.49,1385.286c0-.1,0-.2.013-.293-1.786-.431-3.263-2.222-3.918-4.625a7.451,7.451,0,0,1-.4-14.648c-.012-.143-.02-.287-.021-.433-.012-2.817,2.683-5.051,5.456-5.549,3.409-.612,5.208,2.737,4.72,5-.784,3.633-.9,15.943.111,20.522.437,1.972-.605,3.922-2.669,3.658A4.1,4.1,0,0,1,1935.49,1385.286Z"/></g></svg>