<svg xmlns="http://www.w3.org/2000/svg" width="224.543" height="174.216" viewBox="0 0 224.543 174.216"><defs><style>.a,.e,.f{fill:#9dc3c2;}.b{fill:#d0efb1;}.c{fill:#fff;}.d,.h{fill:none;stroke-linecap:round;stroke-linejoin:round;}.d{stroke:#4d7298;stroke-width:4.728px;}.e,.g{opacity:0.3;}.f,.i{opacity:0.6;}.h{stroke:#9dc3c2;stroke-width:3.885px;}</style></defs><g transform="translate(-2623.242 -1270.965)"><rect class="a" width="152.985" height="115.499" rx="17.763" transform="translate(2662.471 1317.473)"/><path class="b" d="M2677.429,1438.623a19.928,19.928,0,0,1-20.864-18.944l-3.833-79.539a19.781,19.781,0,0,1,.061-2.77,5.721,5.721,0,0,0-6.33-6.194l-1.874.2a7.914,7.914,0,0,0-7.014,8.721l9.652,88.958a18.069,18.069,0,0,0,19.913,16.015l10.7-1.161a2.654,2.654,0,0,0-.414-5.29Z"/><rect class="b" width="21.276" height="46.605" rx="3.559" transform="translate(2711.44 1372.521)"/><rect class="b" width="21.276" height="46.605" rx="3.559" transform="translate(2746.9 1372.521)"/><path class="c" d="M2836.414,1427.994l-33.281-33.281a41.464,41.464,0,1,0-13.524,14.844l32.621,32.621a2.366,2.366,0,0,0,3.344,0l10.84-10.841A2.364,2.364,0,0,0,2836.414,1427.994Z"/><circle class="d" cx="39.175" cy="39.175" r="39.175" transform="matrix(0.771, -0.636, 0.636, 0.771, 2720.458, 1360.807)"/><path class="d" d="M2748.487,1375.119a28.68,28.68,0,0,1,12.241-33.292"/><path class="d" d="M2809.281,1386.3l34.561,34.561L2833,1431.7l-34.031-34.031"/><rect class="b" width="21.276" height="27.017" rx="3.559" transform="translate(2679.019 1392.446)"/><path class="e" d="M2707.178,1271.725v10.26a.5.5,0,0,0,.62.481l9.723-2.478a.749.749,0,0,0,.545-.926,11.368,11.368,0,0,0-10.1-8.095A.75.75,0,0,0,2707.178,1271.725Z"/><path class="f" d="M2702.293,1275.1a11.369,11.369,0,1,0,10.244,17.325.71.71,0,0,0-.3-1l-9.367-4.658v-11.111A.558.558,0,0,0,2702.293,1275.1Z"/><path class="a" d="M2722.2,1282.015l-8.766,2.234a.608.608,0,0,0-.12,1.133l7.943,3.95a.7.7,0,0,0,.954-.323,11.311,11.311,0,0,0,1.006-4.671,11.082,11.082,0,0,0-.144-1.769A.7.7,0,0,0,2722.2,1282.015Z"/><g class="g"><path class="h" d="M2645.837,1321.859l4.313-11.018,11.879,2.622,4.353-13.037"/><path class="h" d="M2669.907,1305.2l-3.277-6.312-6.323,3.278"/></g><circle class="e" cx="7.291" cy="7.291" r="7.291" transform="translate(2826.862 1324.729)"/><circle class="a" cx="2.87" cy="2.87" r="2.87" transform="translate(2684.643 1303.863)"/><circle class="a" cx="3.411" cy="3.411" r="3.411" transform="translate(2623.242 1324.319)"/><g class="i"><path class="a" d="M2791.571,1302.289l5.77,4.061a.474.474,0,0,0,.733-.5l-1.688-6.711a.549.549,0,0,0-.675-.4,8.817,8.817,0,0,0-3.279,1.774,8.684,8.684,0,0,0-.976.982A.55.55,0,0,0,2791.571,1302.289Z"/></g><rect class="e" width="7.488" height="18.399" rx="1.373" transform="translate(2767.116 1283.947) rotate(14.351)"/><rect class="f" width="7.489" height="11.228" rx="1.373" transform="translate(2753.532 1289.928) rotate(9.585)"/><rect class="a" width="7.489" height="6.409" rx="1.373" transform="translate(2741.861 1293.021) rotate(9.585)"/><rect class="e" width="5.899" height="8.845" rx="1.373" transform="translate(2625.118 1353.801) rotate(-34.816)"/><path class="h" d="M2838.69,1356.366l7.153-.2-.011-7.208"/><g class="i"><line class="h" x1="1.238" y2="8.356" transform="translate(2815.261 1289.605)"/><line class="h" x1="8.356" y1="1.238" transform="translate(2811.702 1293.164)"/></g></g></svg>