<svg xmlns="http://www.w3.org/2000/svg" width="224.634" height="214.465" viewBox="0 0 224.634 214.465"><defs><style>.a{fill:#9dc3c2;}.b{fill:#d0efb1;}.c{fill:#fff;}.d,.e,.f,.g,.h,.i{fill:none;stroke-linecap:round;stroke-linejoin:round;}.d{stroke:#4d7298;stroke-width:4.728px;}.e,.h,.i{stroke:#9dc3c2;}.e,.f,.g,.h,.i{stroke-width:5.828px;}.f,.g{stroke:rgba(157,195,194,0.3);}.g,.h{opacity:0.6;}.i{opacity:0.3;}</style></defs><g transform="translate(-2292.243 -1242.018)"><path class="a" d="M2497.309,1347.094a47.682,47.682,0,0,0-84.593-30.187,3.171,3.171,0,0,1-4.9,0,47.683,47.683,0,0,0-84.594,30.187c0,44.873,68.53,97.173,83.977,108.392a5.22,5.22,0,0,0,6.136,0C2428.778,1444.267,2497.309,1391.967,2497.309,1347.094Z"/><path class="b" d="M2476.475,1360.609a33.541,33.541,0,0,0-61.227-18.933,33.541,33.541,0,0,0-61.226,18.933c0,31.586,48.272,68.4,59.092,76.259a3.631,3.631,0,0,0,4.269,0C2428.2,1429.012,2476.475,1392.195,2476.475,1360.609Z"/><path class="c" d="M2469.632,1338.765h0a24.583,24.583,0,0,0-26.623,22.3l-1.426,16.128-2.9-.257a2.366,2.366,0,0,0-2.563,2.147l-1.057,11.959a2.363,2.363,0,0,0,2.146,2.563l49.468,4.373a2.045,2.045,0,0,0,.208.01,2.365,2.365,0,0,0,2.355-2.156l2.691-30.442A24.584,24.584,0,0,0,2469.632,1338.765Z"/><path class="c" d="M2367.231,1359.052a21.6,21.6,0,0,0-23.084-19.958l-3.928.285a21.578,21.578,0,0,0-19.958,23.084l2.277,31.364a2.363,2.363,0,0,0,2.358,2.192c.057,0,.114,0,.171-.006l42.255-3.068a2.364,2.364,0,0,0,2.186-2.529Z"/><path class="c" d="M2330.621,1333.453a15.6,15.6,0,0,0,10.254,3.828q.579,0,1.163-.042a15.714,15.714,0,1,0-11.417-3.786Z"/><path class="d" d="M2476.128,1331.849h0A22.193,22.193,0,0,0,2452.067,1352l-1.634,18.483-5.254-.465-1.058,11.959,5.255.465,19.751,1.746,24.462,2.163,2.691-30.442A22.192,22.192,0,0,0,2476.128,1331.849Z"/><line class="d" x2="45.883" y2="4.056" transform="translate(2448.762 1370.335)"/><line class="d" y1="10.872" x2="0.961" transform="translate(2471.704 1361.491)"/><circle class="d" cx="5.065" cy="5.065" r="5.065" transform="translate(2467.948 1351.318)"/><path class="d" d="M2460.712,1385.266c-1.684,10.67-1.482,24.062,0,39.305"/><path class="d" d="M2373.257,1383.021c1.683,10.67,1.481,24.062,0,39.305"/><path class="d" d="M2332.11,1385.266c1.683,10.67,1.481,24.062,0,39.305"/><path class="d" d="M2481.322,1416.07c-1.766-11.223-1.993-21.615,0-30.8"/><path class="d" d="M2315.719,1376.349c0-11.561,11.81-36.178,21.813-41.2"/><path class="d" d="M2386.539,1371.6c-1.378-11.479-16.037-34.512-26.568-38.308"/><path class="d" d="M19.214,0h3.938A19.214,19.214,0,0,1,42.366,19.214V50.66a0,0,0,0,1,0,0H0a0,0,0,0,1,0,0V19.214A19.214,19.214,0,0,1,19.214,0Z" transform="translate(2327.932 1333.858) rotate(-4.154)"/><line class="d" x1="0.419" y1="5.775" transform="translate(2348.6 1326.01)"/><circle class="d" cx="13.339" cy="13.339" r="13.339" transform="translate(2334.212 1298.972)"/><path class="d" d="M2433.411,1402.724c-12.984,8.694-26.857,8.431-41.541,0"/><path class="d" d="M2399.226,1399.44l-8.81,2.147,2.146,8.81"/><path class="d" d="M2390.416,1346.71c12.984-8.695,26.857-8.432,41.54,0"/><path class="d" d="M2424.6,1349.993l8.81-2.147-2.146-8.81"/><line class="e" y2="25.451" transform="translate(2410.264 1247.736)"/><line class="e" y1="3.754" transform="translate(2410.264 1285.362)"/><line class="f" x1="2.866" y1="9.072" transform="translate(2369.408 1245.674)"/><line class="f" x1="4.441" y1="14.058" transform="translate(2375.229 1264.102)"/><line class="e" x1="13.514" y1="19.254" transform="translate(2330.48 1261.917)"/><line class="g" x1="12.218" y1="9.343" transform="translate(2296.328 1289.116)"/><line class="g" x1="1.178" y1="0.9" transform="translate(2316.331 1304.412)"/><line class="h" y1="19.586" x2="5.946" transform="translate(2438.622 1257.474)"/><line class="i" y1="3.061" x2="2.047" transform="translate(2486.406 1253.229)"/><line class="i" y1="23.023" x2="15.397" transform="translate(2465.463 1264.583)"/><line class="h" y1="14.315" x2="17.465" transform="translate(2495.312 1285.756)"/></g></svg>